<mxfile host="app.diagrams.net" modified="2022-04-12T08:01:07.496Z" agent="5.0 (Macintosh; Intel Mac OS X 10_15_7) AppleWebKit/537.36 (KHTML, like Gecko) Chrome/99.0.4844.84 Safari/537.36" etag="UeXpgghUPI759RqcEJKL" version="17.4.0" type="github">
  <diagram id="0nwToTUmoEpi5SeWugIY" name="Page-1">
    <mxGraphModel dx="676" dy="421" grid="1" gridSize="10" guides="1" tooltips="1" connect="1" arrows="1" fold="1" page="1" pageScale="1" pageWidth="827" pageHeight="1169" math="0" shadow="0">
      <root>
        <mxCell id="0" />
        <mxCell id="1" parent="0" />
        <mxCell id="RY85fgAZCFZPu7mtFO9s-3" value="" style="rounded=0;whiteSpace=wrap;html=1;" vertex="1" parent="1">
          <mxGeometry x="10" y="230" width="530" height="350" as="geometry" />
        </mxCell>
        <mxCell id="RY85fgAZCFZPu7mtFO9s-13" value="" style="rounded=0;whiteSpace=wrap;html=1;dashed=1;" vertex="1" parent="1">
          <mxGeometry x="60" y="270" width="450" height="180" as="geometry" />
        </mxCell>
        <mxCell id="RY85fgAZCFZPu7mtFO9s-8" style="edgeStyle=orthogonalEdgeStyle;rounded=0;orthogonalLoop=1;jettySize=auto;html=1;exitX=0.25;exitY=1;exitDx=0;exitDy=0;entryX=0.25;entryY=0;entryDx=0;entryDy=0;startArrow=classic;startFill=1;endArrow=none;endFill=0;" edge="1" parent="1" source="RY85fgAZCFZPu7mtFO9s-2" target="RY85fgAZCFZPu7mtFO9s-5">
          <mxGeometry relative="1" as="geometry" />
        </mxCell>
        <mxCell id="RY85fgAZCFZPu7mtFO9s-9" style="edgeStyle=orthogonalEdgeStyle;rounded=0;orthogonalLoop=1;jettySize=auto;html=1;exitX=0.75;exitY=1;exitDx=0;exitDy=0;entryX=0.75;entryY=0;entryDx=0;entryDy=0;" edge="1" parent="1" source="RY85fgAZCFZPu7mtFO9s-2" target="RY85fgAZCFZPu7mtFO9s-5">
          <mxGeometry relative="1" as="geometry" />
        </mxCell>
        <mxCell id="RY85fgAZCFZPu7mtFO9s-2" value="ABR模块" style="rounded=1;whiteSpace=wrap;html=1;" vertex="1" parent="1">
          <mxGeometry x="235" y="280" width="100" height="40" as="geometry" />
        </mxCell>
        <mxCell id="RY85fgAZCFZPu7mtFO9s-10" style="edgeStyle=orthogonalEdgeStyle;rounded=0;orthogonalLoop=1;jettySize=auto;html=1;exitX=1;exitY=0.5;exitDx=0;exitDy=0;entryX=0;entryY=0.5;entryDx=0;entryDy=0;" edge="1" parent="1" source="RY85fgAZCFZPu7mtFO9s-5" target="RY85fgAZCFZPu7mtFO9s-7">
          <mxGeometry relative="1" as="geometry" />
        </mxCell>
        <mxCell id="RY85fgAZCFZPu7mtFO9s-11" style="edgeStyle=orthogonalEdgeStyle;rounded=0;orthogonalLoop=1;jettySize=auto;html=1;" edge="1" parent="1" source="RY85fgAZCFZPu7mtFO9s-5" target="RY85fgAZCFZPu7mtFO9s-6">
          <mxGeometry relative="1" as="geometry" />
        </mxCell>
        <mxCell id="RY85fgAZCFZPu7mtFO9s-14" style="edgeStyle=orthogonalEdgeStyle;rounded=0;orthogonalLoop=1;jettySize=auto;html=1;exitX=0.75;exitY=1;exitDx=0;exitDy=0;entryX=0.555;entryY=0;entryDx=0;entryDy=0;entryPerimeter=0;startArrow=none;startFill=0;endArrow=classic;endFill=1;" edge="1" parent="1" source="RY85fgAZCFZPu7mtFO9s-5" target="RY85fgAZCFZPu7mtFO9s-12">
          <mxGeometry relative="1" as="geometry" />
        </mxCell>
        <mxCell id="RY85fgAZCFZPu7mtFO9s-15" style="edgeStyle=orthogonalEdgeStyle;rounded=0;orthogonalLoop=1;jettySize=auto;html=1;exitX=0.25;exitY=1;exitDx=0;exitDy=0;entryX=0.444;entryY=0;entryDx=0;entryDy=0;entryPerimeter=0;startArrow=classic;startFill=1;endArrow=none;endFill=0;" edge="1" parent="1" source="RY85fgAZCFZPu7mtFO9s-5" target="RY85fgAZCFZPu7mtFO9s-12">
          <mxGeometry relative="1" as="geometry" />
        </mxCell>
        <mxCell id="RY85fgAZCFZPu7mtFO9s-5" value="视频下载模块" style="rounded=1;whiteSpace=wrap;html=1;" vertex="1" parent="1">
          <mxGeometry x="235" y="380" width="100" height="40" as="geometry" />
        </mxCell>
        <mxCell id="RY85fgAZCFZPu7mtFO9s-6" value="解码和播放模块" style="rounded=1;whiteSpace=wrap;html=1;" vertex="1" parent="1">
          <mxGeometry x="70" y="380" width="100" height="40" as="geometry" />
        </mxCell>
        <mxCell id="RY85fgAZCFZPu7mtFO9s-16" style="edgeStyle=orthogonalEdgeStyle;rounded=0;orthogonalLoop=1;jettySize=auto;html=1;entryX=0.867;entryY=0;entryDx=0;entryDy=0;entryPerimeter=0;startArrow=none;startFill=0;endArrow=classic;endFill=1;" edge="1" parent="1" source="RY85fgAZCFZPu7mtFO9s-7" target="RY85fgAZCFZPu7mtFO9s-12">
          <mxGeometry relative="1" as="geometry" />
        </mxCell>
        <mxCell id="RY85fgAZCFZPu7mtFO9s-7" value="效用函数模块" style="rounded=1;whiteSpace=wrap;html=1;" vertex="1" parent="1">
          <mxGeometry x="400" y="380" width="100" height="40" as="geometry" />
        </mxCell>
        <mxCell id="RY85fgAZCFZPu7mtFO9s-12" value="QUIC协议" style="rounded=1;whiteSpace=wrap;html=1;" vertex="1" parent="1">
          <mxGeometry x="60" y="490" width="450" height="30" as="geometry" />
        </mxCell>
        <mxCell id="RY85fgAZCFZPu7mtFO9s-18" value="&lt;pre&gt;&lt;font style=&quot;line-height: 1 ; font-size: 9px&quot; face=&quot;Times New Roman&quot;&gt;视频资源&lt;/font&gt;&lt;/pre&gt;" style="text;html=1;strokeColor=none;fillColor=none;align=center;verticalAlign=middle;whiteSpace=wrap;rounded=0;dashed=1;fontFamily=Helvetica;fontSize=5;fontColor=default;" vertex="1" parent="1">
          <mxGeometry x="204" y="450" width="60" height="30" as="geometry" />
        </mxCell>
      </root>
    </mxGraphModel>
  </diagram>
</mxfile>
